<svg width="40" height="40" viewBox="0 0 40 40" fill="none" xmlns="http://www.w3.org/2000/svg">
<rect width="40" height="40" rx="12" fill="current"/>
<path d="M17.5699 26.8201C17.3799 26.8201 17.1899 26.7501 17.0399 26.6001L10.9699 20.5301C10.6799 20.2401 10.6799 19.7601 10.9699 19.4701L17.0399 13.4001C17.3299 13.1101 17.8099 13.1101 18.0999 13.4001C18.3899 13.6901 18.3899 14.1701 18.0999 14.4601L12.5599 20.0001L18.0999 25.5401C18.3899 25.8301 18.3899 26.3101 18.0999 26.6001C17.9599 26.7501 17.7599 26.8201 17.5699 26.8201Z" fill="white"/>
<path d="M28.4999 20.75H11.6699C11.2599 20.75 10.9199 20.41 10.9199 20C10.9199 19.59 11.2599 19.25 11.6699 19.25H28.4999C28.9099 19.25 29.2499 19.59 29.2499 20C29.2499 20.41 28.9099 20.75 28.4999 20.75Z" fill="white"/>
</svg>
