<svg width="25" height="24" viewBox="0 0 25 24" fill="none" xmlns="http://www.w3.org/2000/svg">
<path d="M12.5 22.75C6.57 22.75 1.75 17.93 1.75 12C1.75 6.07 6.57 1.25 12.5 1.25C18.43 1.25 23.25 6.07 23.25 12C23.25 17.93 18.43 22.75 12.5 22.75ZM12.5 2.75C7.4 2.75 3.25 6.9 3.25 12C3.25 17.1 7.4 21.25 12.5 21.25C17.6 21.25 21.75 17.1 21.75 12C21.75 6.9 17.6 2.75 12.5 2.75Z" fill="current"/>
<path d="M12.5 16.25C12.09 16.25 11.75 15.91 11.75 15.5V9.5C11.75 9.09 12.09 8.75 12.5 8.75C12.91 8.75 13.25 9.09 13.25 9.5V15.5C13.25 15.91 12.91 16.25 12.5 16.25Z" fill="current"/>
<path d="M15.4995 12.2499C15.3095 12.2499 15.1195 12.1799 14.9695 12.0299L12.4995 9.55994L10.0295 12.0299C9.73945 12.3199 9.25945 12.3199 8.96945 12.0299C8.67945 11.7399 8.67945 11.2599 8.96945 10.9699L11.9695 7.96994C12.2595 7.67994 12.7395 7.67994 13.0295 7.96994L16.0295 10.9699C16.3195 11.2599 16.3195 11.7399 16.0295 12.0299C15.8795 12.1799 15.6895 12.2499 15.4995 12.2499Z" fill="current"/>
</svg>
