<svg width="24" height="24" viewBox="0 0 24 24" fill="none" xmlns="http://www.w3.org/2000/svg">
<path d="M18.0633 21.2032L18.0628 21.2029L13.1872 18.4954C13.1864 18.4949 13.1856 18.4945 13.1848 18.494C12.8359 18.2964 12.4085 18.2125 12.0088 18.2125C11.6077 18.2125 11.1788 18.2969 10.8267 18.4932C10.8266 18.4932 10.8265 18.4933 10.8265 18.4933L5.94884 21.202C5.94857 21.2022 5.94831 21.2023 5.94805 21.2024C5.25463 21.584 4.73413 21.5526 4.41624 21.3654C4.09862 21.1784 3.82001 20.7395 3.82001 19.95V5.86C3.82001 4.0153 5.32699 2.5 7.18001 2.5H16.82C18.6722 2.5 20.1807 4.01472 20.19 5.86119V19.95C20.19 20.7459 19.9105 21.1864 19.5938 21.3729C19.2773 21.5593 18.7576 21.5899 18.0633 21.2032Z" stroke="current" stroke-linecap="round" stroke-linejoin="round"/>
</svg>
