<svg width="36" height="36" viewBox="0 0 36 36" fill="none" xmlns="http://www.w3.org/2000/svg">
<path d="M24.1549 15.245V22.0902C24.157 22.4883 24.1252 22.8859 24.0598 23.2786C23.7913 24.8715 22.9671 26.3178 21.7336 27.3608C20.5 28.4038 18.9369 28.9761 17.3215 28.9761C15.7061 28.9761 14.143 28.4038 12.9094 27.3608C11.6759 26.3178 10.8517 24.8715 10.5832 23.2786C10.5073 22.8872 10.4715 22.489 10.4763 22.0902V15.245C10.4729 14.8463 10.5087 14.4482 10.5832 14.0566C10.8019 12.8249 11.354 11.6767 12.1794 10.7367C13.0049 9.7967 14.0721 9.10089 15.2652 8.72483C16.4583 8.34877 17.7317 8.30685 18.9469 8.60361C20.1622 8.90038 21.2729 9.52449 22.1583 10.4081C23.1685 11.407 23.8344 12.7015 24.0598 14.1041C24.1214 14.4813 24.1532 14.8628 24.1549 15.245Z" fill="white"/>
<path d="M10.4763 14.1041H24.1549" stroke="black" stroke-width="1.71659" stroke-miterlimit="10" stroke-linecap="round"/>
<g filter="url(#filter0_d_956_45279)">
<path fill-rule="evenodd" clip-rule="evenodd" d="M21.5489 4.2437C21.2138 3.90851 20.6703 3.90851 20.3351 4.2437C19.9999 4.57889 19.9999 5.12233 20.3351 5.45751C20.816 5.93842 21.0862 6.59067 21.0862 7.27077V8.53156C20.4812 8.19288 19.8305 7.93585 19.1507 7.76984C17.783 7.43586 16.35 7.48304 15.0073 7.90625C14.5232 8.05886 14.0575 8.25825 13.6163 8.50044V7.27078C13.6162 6.59528 13.8827 5.94705 14.3579 5.4669C14.6913 5.12997 14.6884 4.58653 14.3515 4.2531C14.0146 3.91968 13.4711 3.92252 13.1377 4.25946C12.3445 5.06101 11.8996 6.1432 11.8997 7.27087V9.78261C11.7738 9.90736 11.6521 10.0367 11.5347 10.1704C10.7749 11.0355 10.221 12.0575 9.90971 13.1593C9.49127 13.0992 9.08118 12.9861 8.68948 12.822C8.07878 12.5663 7.52496 12.1918 7.06014 11.7203C6.14949 10.7887 5.64038 9.53728 5.64214 8.23455V7.27077C5.64214 6.79675 5.25786 6.41248 4.78384 6.41248C4.30982 6.41248 3.92554 6.79675 3.92554 7.27077V8.23282C3.92333 9.98535 4.60856 11.6689 5.83404 12.9217L5.83621 12.9239C6.4609 13.558 7.20537 14.0615 8.02637 14.4054C8.54022 14.6206 9.07775 14.7705 9.62626 14.8527C9.61978 14.9844 9.61706 15.1164 9.6181 15.2485V17.8093H3.64272C3.1687 17.8093 2.78442 18.1936 2.78442 18.6676C2.78442 19.1416 3.1687 19.5259 3.64272 19.5259H9.6181V22.0853C9.6168 22.2014 9.6185 22.3175 9.6232 22.4335C9.08386 22.5145 8.55552 22.6629 8.05077 22.876C7.2514 23.2136 6.52723 23.7069 5.92045 24.3271L5.79312 24.4543L5.78598 24.4617C4.59309 25.6833 3.92537 27.3232 3.92554 29.0307V30.0645C3.92554 30.5385 4.30981 30.9228 4.78383 30.9228C5.25786 30.9228 5.64213 30.5385 5.64213 30.0645V29.0305C5.64199 27.7729 6.13314 26.565 7.01075 25.6644L7.13775 25.5375L7.1448 25.5303C7.59284 25.0716 8.12786 24.7069 8.71856 24.4574C9.09477 24.2985 9.48874 24.1885 9.8909 24.1292C10.2949 25.6404 11.1521 26.9988 12.3554 28.0163C13.7439 29.1903 15.5034 29.8344 17.3216 29.8344C19.1399 29.8344 20.8994 29.1903 22.2879 28.0163C23.4912 26.9988 24.3484 25.6405 24.7524 24.1293C25.7748 24.2797 26.7294 24.7536 27.4707 25.4908L27.4715 25.4915L27.5655 25.5855C28.0135 26.0328 28.3689 26.5642 28.6112 27.1491C28.8535 27.7341 28.9779 28.3618 28.9773 28.9949V30.0645C28.9773 30.5385 29.3616 30.9228 29.8356 30.9228C30.3097 30.9228 30.6939 30.5385 30.6939 30.0645V28.9949C30.6946 28.1361 30.5258 27.2857 30.1971 26.4922C29.8684 25.6986 29.3862 24.9776 28.7782 24.3707L28.6837 24.2761L28.6821 24.2746C27.68 23.2776 26.3897 22.6362 25.0076 22.4317C25.012 22.3172 25.0139 22.2026 25.0133 22.0879L25.0133 19.5259H30.9999C31.474 19.5259 31.8582 19.1416 31.8582 18.6676C31.8582 18.1936 31.474 17.8093 30.9999 17.8093H25.0133L25.0133 15.245L25.0133 15.2413C25.0128 15.1139 25.0092 14.9866 25.0027 14.8596C26.4093 14.6585 27.725 14.0132 28.75 13.0047L28.7546 13.0001C30.0102 11.7459 30.7163 10.0437 30.7176 8.26904V7.27077C30.7176 6.79675 30.3334 6.41248 29.8593 6.41248C29.3853 6.41248 29.001 6.79675 29.001 7.27077V8.26838C29 9.58681 28.4759 10.8509 27.5438 11.7832C26.7754 12.5383 25.7878 13.0191 24.7328 13.164C24.3884 11.9117 23.7254 10.7649 22.8028 9.83853V7.27077C22.8028 6.1354 22.3518 5.04653 21.5489 4.2437ZM13.3883 10.7413C13.3516 10.7809 13.3113 10.817 13.2678 10.8492C13.1126 10.9921 12.9646 11.1436 12.8245 11.303C12.3308 11.8652 11.949 12.5126 11.6957 13.2102H22.9488C22.6564 12.3884 22.1817 11.6382 21.555 11.0185L21.5522 11.0157C20.7777 10.2428 19.8063 9.69699 18.7434 9.43743C17.6806 9.17787 16.5669 9.21454 15.5234 9.54345C14.7341 9.79224 14.0077 10.201 13.3883 10.7413ZM13.4637 26.7054C12.4025 25.8081 11.6878 24.5695 11.4414 23.2032C11.4397 23.1113 11.4236 23.023 11.3952 22.9403C11.3516 22.6627 11.3313 22.3818 11.3347 22.1006L11.3347 15.245L11.3347 15.2377C11.3338 15.134 11.336 15.0303 11.3413 14.9268H16.4631V28.0558C15.3623 27.896 14.3218 27.431 13.4637 26.7054ZM18.1797 28.0559C19.2807 27.8961 20.3213 27.4311 21.1796 26.7054C22.2407 25.8082 22.9554 24.5697 23.2018 23.2035C23.2033 23.1214 23.2163 23.0422 23.2392 22.9673C23.2791 22.6783 23.2983 22.3868 23.2967 22.0949L23.2967 22.0902V18.6917C23.2965 18.6837 23.2964 18.6757 23.2964 18.6676C23.2964 18.6596 23.2965 18.6515 23.2967 18.6435V15.2468C23.2962 15.1401 23.2931 15.0333 23.2872 14.9268H18.1797V28.0559Z" fill="#6C63FF"/>
</g>
<defs>
<filter id="filter0_d_956_45279" x="1.78442" y="3.99231" width="30.0737" height="27.9305" filterUnits="userSpaceOnUse" color-interpolation-filters="sRGB">
<feFlood flood-opacity="0" result="BackgroundImageFix"/>
<feColorMatrix in="SourceAlpha" type="matrix" values="0 0 0 0 0 0 0 0 0 0 0 0 0 0 0 0 0 0 127 0" result="hardAlpha"/>
<feOffset dx="-1" dy="1"/>
<feComposite in2="hardAlpha" operator="out"/>
<feColorMatrix type="matrix" values="0 0 0 0 0.203922 0 0 0 0 0.027451 0 0 0 0 0.427451 0 0 0 0.25 0"/>
<feBlend mode="color-burn" in2="BackgroundImageFix" result="effect1_dropShadow_956_45279"/>
<feBlend mode="normal" in="SourceGraphic" in2="effect1_dropShadow_956_45279" result="shape"/>
</filter>
</defs>
</svg>
