<svg width="37" height="36" viewBox="0 0 37 36" fill="none" xmlns="http://www.w3.org/2000/svg">
<path d="M15.5 9.83753C15.5 10.4111 15.2366 10.9611 14.7678 11.3666C14.2989 11.7722 13.663 12 13 12C12.337 12 11.7011 11.7722 11.2322 11.3666C10.7634 10.9611 10.5 10.4111 10.5 9.83753C10.5 8.51992 11.4281 7.20231 12.1534 6.37387C12.5898 5.87538 13.4102 5.87538 13.8466 6.37387C14.5719 7.20231 15.5 8.51992 15.5 9.83753Z" fill="white"/>
<path d="M16.1963 15H9.80367C8.53139 15 7.5 16.0102 7.5 17.2562V29H18.5V17.2562C18.5 16.0102 17.4686 15 16.1963 15Z" fill="white"/>
<path d="M26.5 13.8375C26.5 14.4111 26.2366 14.9611 25.7678 15.3666C25.2989 15.7722 24.663 16 24 16C23.337 16 22.7011 15.7722 22.2322 15.3666C21.7634 14.9611 21.5 14.4111 21.5 13.8375C21.5 12.5199 22.4281 11.2023 23.1534 10.3739C23.5898 9.87538 24.4102 9.87538 24.8466 10.3739C25.5719 11.2023 26.5 12.5199 26.5 13.8375Z" fill="white"/>
<path d="M27.1963 20H18.5V29H29.5V22.0955C29.5 20.9382 28.4686 20 27.1963 20Z" fill="white"/>
<g filter="url(#filter0_d_607_42124)">
<path fill-rule="evenodd" clip-rule="evenodd" d="M14.5776 5.7011C13.7995 4.67353 12.2951 4.67353 11.5169 5.7011C10.8639 6.56357 9.87177 8.11988 9.87177 9.79721C9.87177 10.6394 10.2063 11.4471 10.8019 12.0426C11.1568 12.3975 11.5871 12.6598 12.0551 12.8137V14.2578H9.86922C8.05861 14.2578 6.59082 15.7256 6.59082 17.5362V29.0158H5.92546C5.37753 29.0158 4.93335 29.46 4.93335 30.0079C4.93335 30.5558 5.37753 31 5.92546 31L31.0746 31C31.6225 31 32.0667 30.5558 32.0667 30.0079C32.0667 29.46 31.6225 29.0158 31.0746 29.0158H30.4092V21.903C30.4092 20.0924 28.9414 18.6246 27.1308 18.6246H24.945V17.1805C25.4131 17.0265 25.8434 16.7643 26.1984 16.4093C26.7939 15.8138 27.1285 15.0061 27.1285 14.1639C27.1285 12.4866 26.1364 10.9303 25.4833 10.0678C24.7052 9.04023 23.2007 9.04023 22.4226 10.0678C21.7695 10.9303 20.7774 12.4866 20.7774 14.1639C20.7774 15.0061 21.112 15.8138 21.7075 16.4093C22.0624 16.7642 22.4927 17.0265 22.9607 17.1804V18.6246H19.4921V17.5362C19.4921 15.7256 18.0243 14.2578 16.2137 14.2578H14.0393V12.8138C14.5074 12.6598 14.9377 12.3976 15.2927 12.0426C15.8882 11.4471 16.2228 10.6394 16.2228 9.79721C16.2228 8.11988 15.2307 6.56357 14.5776 5.7011ZM11.856 9.79721C11.856 8.84131 12.4504 7.77108 13.0473 6.96763C13.6442 7.77108 14.2386 8.84131 14.2386 9.79721C14.2386 10.1132 14.1131 10.4162 13.8897 10.6396C13.6662 10.863 13.3632 10.9885 13.0473 10.9885C12.7313 10.9885 12.4283 10.863 12.2049 10.6396C11.9815 10.4162 11.856 10.1132 11.856 9.79721ZM9.86922 16.242C9.15446 16.242 8.57504 16.8215 8.57504 17.5362V29H17.5078V17.5362C17.5078 16.8215 16.9284 16.242 16.2137 16.242H9.86922ZM23.9529 11.3343C23.3561 12.1378 22.7617 13.208 22.7617 14.1639C22.7617 14.4799 22.8872 14.7829 23.1106 15.0063C23.334 15.2297 23.637 15.3552 23.9529 15.3552C24.2689 15.3552 24.5719 15.2297 24.7953 15.0063C25.0187 14.7829 25.1442 14.4799 25.1442 14.1639C25.1442 13.208 24.5498 12.1378 23.9529 11.3343ZM19.4921 29V20.6089H27.1308C27.8455 20.6089 28.4249 21.1883 28.4249 21.903V29H23.9585H19.4921Z" fill="#6C63FF"/>
</g>
<defs>
<filter id="filter0_d_607_42124" x="3.93335" y="4.93042" width="28.1333" height="27.0696" filterUnits="userSpaceOnUse" color-interpolation-filters="sRGB">
<feFlood flood-opacity="0" result="BackgroundImageFix"/>
<feColorMatrix in="SourceAlpha" type="matrix" values="0 0 0 0 0 0 0 0 0 0 0 0 0 0 0 0 0 0 127 0" result="hardAlpha"/>
<feOffset dx="-1" dy="1"/>
<feComposite in2="hardAlpha" operator="out"/>
<feColorMatrix type="matrix" values="0 0 0 0 0.203922 0 0 0 0 0.027451 0 0 0 0 0.427451 0 0 0 0.25 0"/>
<feBlend mode="color-burn" in2="BackgroundImageFix" result="effect1_dropShadow_607_42124"/>
<feBlend mode="normal" in="SourceGraphic" in2="effect1_dropShadow_607_42124" result="shape"/>
</filter>
</defs>
</svg>
