<svg width="16" height="16" viewBox="0 0 16 16" fill="none" xmlns="http://www.w3.org/2000/svg">
<g id="vuesax/outline/tick-circle">
<g id="tick-circle">
<path id="Vector" d="M8.00016 15.1673C4.04683 15.1673 0.833496 11.954 0.833496 8.00065C0.833496 4.04732 4.04683 0.833984 8.00016 0.833984C11.9535 0.833984 15.1668 4.04732 15.1668 8.00065C15.1668 11.954 11.9535 15.1673 8.00016 15.1673ZM8.00016 1.83398C4.60016 1.83398 1.8335 4.60065 1.8335 8.00065C1.8335 11.4007 4.60016 14.1673 8.00016 14.1673C11.4002 14.1673 14.1668 11.4007 14.1668 8.00065C14.1668 4.60065 11.4002 1.83398 8.00016 1.83398Z" fill="current"/>
<path id="Vector_2" d="M7.05346 10.3858C6.92012 10.3858 6.79346 10.3324 6.70012 10.2391L4.81346 8.35242C4.62012 8.15909 4.62012 7.83909 4.81346 7.64576C5.00679 7.45242 5.32679 7.45242 5.52012 7.64576L7.05346 9.17909L10.4801 5.75242C10.6735 5.55909 10.9935 5.55909 11.1868 5.75242C11.3801 5.94576 11.3801 6.26575 11.1868 6.45909L7.40679 10.2391C7.31346 10.3324 7.18679 10.3858 7.05346 10.3858Z" fill="current"/>
</g>
</g>
</svg>
