<svg width="24" height="24" viewBox="0 0 24 24" fill="none" xmlns="http://www.w3.org/2000/svg">
<path d="M19.9513 6.18935L13.1113 2.29229C12.4273 1.90257 11.5727 1.90257 10.8887 2.29229L4.04869 6.18935C3.39809 6.56003 3 7.22767 3 7.94814V16.0519C3 16.7723 3.39809 17.44 4.04869 17.8106L10.8887 21.7077C11.5727 22.0974 12.4273 22.0974 13.1113 21.7077L19.9513 17.8106C20.6019 17.44 21 16.7723 21 16.0519V7.94814C21 7.22767 20.6019 6.56003 19.9513 6.18935Z" fill="#F3F2FF"/>
<path fill-rule="evenodd" clip-rule="evenodd" d="M20.0827 6.96125C19.9684 6.83148 19.8308 6.71872 19.6735 6.6291L12.8335 2.73205C12.3205 2.43975 11.6795 2.43975 11.1665 2.73204L4.3265 6.6291C4.1692 6.71872 4.03159 6.83148 3.91731 6.96125L12 11.2785L20.0827 6.96125ZM11.73 11.7227L3.64471 7.40402C3.57646 7.57535 3.54 7.75932 3.54 7.94814V16.0519C3.54 16.5922 3.83854 17.0929 4.3265 17.3709L11.1665 21.268C11.3427 21.3683 11.534 21.4343 11.73 21.4657V11.7227ZM12.27 21.4657C12.466 21.4343 12.6573 21.3683 12.8335 21.268L19.6735 17.3709C20.1615 17.0929 20.46 16.5922 20.46 16.0519V7.94814C20.46 7.75932 20.4235 7.57535 20.3553 7.40402L12.27 11.7227V21.4657ZM12.27 21.9839C12.5627 21.949 12.8495 21.8569 13.1113 21.7077L19.9513 17.8106C20.6019 17.44 21 16.7723 21 16.0519V7.94814C21 7.22767 20.6019 6.56003 19.9513 6.18935L13.1113 2.29229C12.4273 1.90257 11.5727 1.90257 10.8887 2.29229L4.04869 6.18935C3.39809 6.56003 3 7.22767 3 7.94814V16.0519C3 16.7723 3.39809 17.44 4.04869 17.8106L10.8887 21.7077C11.1505 21.8569 11.4373 21.949 11.73 21.9839C11.7975 21.992 11.8654 21.997 11.9333 21.999C11.9778 22.0003 12.0222 22.0003 12.0667 21.999C12.1346 21.997 12.2025 21.992 12.27 21.9839Z" fill="#6C63FF"/>
<path d="M9.43723 6.50429C9.68281 6.8013 9.62835 7.23113 9.31559 7.46435C9.00284 7.69756 8.55022 7.64584 8.30465 7.34883C8.05908 7.05181 8.11354 6.62198 8.42629 6.38877C8.73905 6.15555 9.19166 6.20728 9.43723 6.50429Z" fill="#6C63FF"/>
<path d="M8.22 13.9658C8.22 14.3434 7.89764 14.6496 7.5 14.6496C7.10236 14.6496 6.78 14.3434 6.78 13.9658C6.78 13.5882 7.10236 13.282 7.5 13.282C7.89764 13.282 8.22 13.5882 8.22 13.9658Z" fill="#6C63FF"/>
<path d="M12.9205 8.50949C13.1661 8.8065 13.1116 9.23633 12.7989 9.46954C12.4861 9.70276 12.0335 9.65104 11.7879 9.35402C11.5423 9.05701 11.5968 8.62718 11.9096 8.39397C12.2223 8.16075 12.6749 8.21247 12.9205 8.50949Z" fill="#6C63FF"/>
<path d="M15.6835 15.7233C16.0279 15.9121 16.1459 16.3303 15.9471 16.6573C15.7483 16.9843 15.3079 17.0964 14.9635 16.9076C14.6192 16.7188 14.5012 16.3006 14.7 15.9735C14.8988 15.6465 15.3392 15.5344 15.6835 15.7233Z" fill="#6C63FF"/>
<path d="M15.9967 6.25239C16.2423 6.5494 16.1878 6.97923 15.875 7.21244C15.5623 7.44566 15.1097 7.39394 14.8641 7.09692C14.6185 6.79991 14.673 6.37008 14.9857 6.13686C15.2985 5.90365 15.7511 5.95537 15.9967 6.25239Z" fill="#6C63FF"/>
<path d="M17.0363 13.4284C17.3806 13.6173 17.4986 14.0354 17.2998 14.3625C17.101 14.6895 16.6606 14.8016 16.3163 14.6127C15.9719 14.4239 15.8539 14.0058 16.0527 13.6787C16.2515 13.3517 16.6919 13.2396 17.0363 13.4284Z" fill="#6C63FF"/>
<path d="M18.4763 11.0598C18.8206 11.2486 18.9386 11.6668 18.7398 11.9939C18.541 12.3209 18.1006 12.433 17.7563 12.2441C17.4119 12.0553 17.2939 11.6371 17.4927 11.3101C17.6915 10.9831 18.1319 10.871 18.4763 11.0598Z" fill="#6C63FF"/>
<path d="M12.5134 4.24719C12.759 4.5442 12.7045 4.97403 12.3918 5.20725C12.079 5.44046 11.6264 5.38874 11.3808 5.09173C11.1353 4.79471 11.1897 4.36488 11.5025 4.13167C11.8152 3.89845 12.2679 3.95017 12.5134 4.24719Z" fill="#6C63FF"/>
</svg>
