<svg width="24" height="24" viewBox="0 0 24 24" fill="none" xmlns="http://www.w3.org/2000/svg">
<g id="vuesax/outline/path">
<g id="path">
<path id="Vector" d="M16.9802 13.1996C16.7902 13.1996 16.5902 13.1196 16.4502 12.9796L11.0502 7.56958C10.8002 7.31958 10.7602 6.93958 10.9502 6.63958L12.6402 3.96958C13.1102 3.22958 13.8202 2.76958 14.6502 2.67958C15.5802 2.58958 16.5402 2.94958 17.2902 3.69958L20.3202 6.72958C21.0402 7.44958 21.4002 8.41958 21.2902 9.37958C21.2002 10.2196 20.7502 10.9496 20.0502 11.3896L17.3802 13.0796C17.2602 13.1596 17.1202 13.1996 16.9802 13.1996ZM12.5302 6.93958L17.0902 11.4996L19.2602 10.1296C19.5702 9.92958 19.7702 9.60958 19.8102 9.21958C19.8702 8.71958 19.6602 8.18958 19.2702 7.79958L16.2402 4.76958C15.8102 4.33958 15.2902 4.10958 14.8202 4.17958C14.4402 4.21958 14.1302 4.42958 13.9102 4.77958L12.5302 6.93958Z" fill="white"/>
<path id="Vector_2" d="M5.88989 21.3405C4.99989 21.3405 4.19989 21.0205 3.59989 20.4305C2.89989 19.7305 2.58989 18.7605 2.71989 17.6805L3.69989 9.35052C3.99989 6.83052 5.10989 5.91051 7.69989 6.06051L11.6199 6.29051C12.0299 6.32051 12.3499 6.67051 12.3199 7.08051C12.2899 7.49051 11.9399 7.81052 11.5299 7.78052L7.60989 7.56051C5.82989 7.45051 5.38989 7.80051 5.18989 9.53051L4.20989 17.8505C4.13989 18.4605 4.29989 19.0005 4.65989 19.3605C5.02989 19.7205 5.56989 19.8905 6.17989 19.8105L14.4999 18.8305C16.2499 18.6205 16.6399 18.1605 16.4699 16.4405L16.2299 12.4905C16.2099 12.0805 16.5199 11.7205 16.9299 11.7005C17.3399 11.6705 17.6999 11.9905 17.7199 12.4005L17.9499 16.3205C18.1899 18.8105 17.2099 20.0105 14.6599 20.3205L6.33989 21.3005C6.19989 21.3305 6.03989 21.3405 5.88989 21.3405Z" fill="white"/>
<path id="Vector_3" d="M4.6098 20.1703C4.4198 20.1703 4.2298 20.1003 4.0798 19.9503C3.7898 19.6603 3.7898 19.1803 4.0798 18.8903L7.1198 15.8503C7.4098 15.5603 7.88981 15.5603 8.17981 15.8503C8.46981 16.1403 8.46981 16.6203 8.17981 16.9103L5.1398 19.9503C4.9898 20.1003 4.7998 20.1703 4.6098 20.1703Z" fill="white"/>
</g>
</g>
</svg>
