<svg width="68" height="68" viewBox="0 0 68 68" fill="none" xmlns="http://www.w3.org/2000/svg">
<g opacity="0.5">
<mask id="mask0_641_24706" style="mask-type:alpha" maskUnits="userSpaceOnUse" x="0" y="0" width="68" height="68">
<rect width="68" height="68" fill="#D9D9D9"/>
</mask>
<g mask="url(#mask0_641_24706)">
<g filter="url(#filter0_d_641_24706)">
<path d="M42.5107 23.2638L38.4402 31.5987C38.1505 32.1918 38 32.843 38 33.503V48.7058C38 50.4075 38.9946 51.9521 40.5437 52.6562L48.8534 56.4334C52.4098 58.0499 55.9723 54.1999 54.0851 50.7793C52.955 48.7309 53.7866 46.1537 55.9009 45.1522L60.6463 42.9044C64.2572 41.194 63.8332 35.9254 59.9953 34.8144L54.6356 33.2629C53.0259 32.797 51.8284 31.4459 51.5591 29.7919L50.6929 24.4709C50.013 20.2942 44.3677 19.4614 42.5107 23.2638Z" fill="#D7AFF8"/>
</g>
<path d="M38 32.5L42.5107 23.2638C44.3677 19.4614 50.013 20.2942 50.6929 24.4709L51.5591 29.7919C51.8284 31.4459 53.0259 32.797 54.6356 33.2629L59.9953 34.8144C63.8332 35.9254 64.2572 41.194 60.6463 42.9044L55.9009 45.1522C53.7866 46.1537 52.955 48.7309 54.0852 50.7793V50.7793C55.9723 54.1999 52.4098 58.0499 48.8534 56.4334L38 51.5" stroke="#6C63FF" stroke-width="1.73576"/>
<g filter="url(#filter1_d_641_24706)">
<rect x="4" y="20" width="40" height="40" rx="4.33939" fill="white"/>
<rect x="4.86788" y="20.8679" width="38.2642" height="38.2642" rx="3.47152" stroke="#6C63FF" stroke-width="1.73576"/>
</g>
<path d="M10.0847 20.8679H37.0446V31.3094C37.0446 32.268 36.2674 33.0452 35.3088 33.0452H11.8204C10.8618 33.0452 10.0847 32.268 10.0847 31.3094V20.8679Z" fill="white" stroke="#6C63FF" stroke-width="1.73576"/>
<path d="M10.0847 40.8646C10.0847 39.906 10.8618 39.1289 11.8204 39.1289H35.3088C36.2674 39.1289 37.0446 39.906 37.0446 40.8646V59.1322H10.0847V40.8646Z" fill="#6C63FF" stroke="#6C63FF" stroke-width="1.73576"/>
<path d="M17.9108 20.8679H37.0447V31.3094C37.0447 32.268 36.2675 33.0452 35.3089 33.0452H17.9108V20.8679Z" fill="#6C63FF" stroke="#6C63FF" stroke-width="1.73576"/>
<rect x="29.2168" y="22.6086" width="5.21739" height="7.82609" fill="white"/>
<path d="M15.9961 37.1208H15.4961V37.6208V38.7908H14.3262H13.8262V39.2908V40.4607H12.6562H12.1562V40.9607V44.3005V44.8005H12.6562H13.8262V45.9704V46.4704H14.3262H15.4961V47.6403V48.1403H15.9961H19.3359H19.8359V47.6403V46.4704H21.0058H21.5058V45.9704V44.8005H22.6757H23.1757V44.3005V40.9607V40.4607H22.6757H21.5058V39.2908V38.7908H21.0058H19.8359V37.6208V37.1208H19.3359H15.9961Z" fill="#A39DFF" stroke="#EBE9FA"/>
<path d="M29.0215 37.1208H28.5215V37.6208V38.7908H27.3515H26.8515V39.2908V40.4607H25.6816H25.1816V40.9607V44.3005V44.8005H25.6816H26.8515V45.9704V46.4704H27.3515H28.5215V47.6403V48.1403H29.0215H32.3613H32.8613V47.6403V46.4704H34.0312H34.5312V45.9704V44.8005H35.7011H36.2011V44.3005V40.9607V40.4607H35.7011H34.5312V39.2908V38.7908H34.0312H32.8613V37.6208V37.1208H32.3613H29.0215Z" fill="#A39DFF" stroke="#EBE9FA"/>
<rect x="21.5352" y="45.5503" width="6.00972" height="6.00972" fill="#A39DFF" stroke="#EBE9FA"/>
<rect x="39.5" y="26.5" width="6" height="6" fill="#6C63FF" stroke="#EBE9FA"/>
<rect x="47.5" y="26.5" width="6" height="6" fill="#6C63FF" stroke="#EBE9FA"/>
<rect x="55.5" y="26.5" width="6" height="6" fill="#6C63FF" stroke="#EBE9FA"/>
</g>
</g>
<defs>
<filter id="filter0_d_641_24706" x="35.6753" y="20.8267" width="27.4536" height="38.3117" filterUnits="userSpaceOnUse" color-interpolation-filters="sRGB">
<feFlood flood-opacity="0" result="BackgroundImageFix"/>
<feColorMatrix in="SourceAlpha" type="matrix" values="0 0 0 0 0 0 0 0 0 0 0 0 0 0 0 0 0 0 127 0" result="hardAlpha"/>
<feOffset dx="-2.32468" dy="2.32468"/>
<feComposite in2="hardAlpha" operator="out"/>
<feColorMatrix type="matrix" values="0 0 0 0 0.203922 0 0 0 0 0.027451 0 0 0 0 0.427451 0 0 0 0.25 0"/>
<feBlend mode="color-burn" in2="BackgroundImageFix" result="effect1_dropShadow_641_24706"/>
<feBlend mode="normal" in="SourceGraphic" in2="effect1_dropShadow_641_24706" result="shape"/>
</filter>
<filter id="filter1_d_641_24706" x="1.67532" y="20" width="42.3247" height="42.3247" filterUnits="userSpaceOnUse" color-interpolation-filters="sRGB">
<feFlood flood-opacity="0" result="BackgroundImageFix"/>
<feColorMatrix in="SourceAlpha" type="matrix" values="0 0 0 0 0 0 0 0 0 0 0 0 0 0 0 0 0 0 127 0" result="hardAlpha"/>
<feOffset dx="-2.32468" dy="2.32468"/>
<feComposite in2="hardAlpha" operator="out"/>
<feColorMatrix type="matrix" values="0 0 0 0 0.203922 0 0 0 0 0.027451 0 0 0 0 0.427451 0 0 0 0.25 0"/>
<feBlend mode="color-burn" in2="BackgroundImageFix" result="effect1_dropShadow_641_24706"/>
<feBlend mode="normal" in="SourceGraphic" in2="effect1_dropShadow_641_24706" result="shape"/>
</filter>
</defs>
</svg>
