<svg width="32" height="32" viewBox="0 0 32 32" fill="none" xmlns="http://www.w3.org/2000/svg">
<path d="M29.3333 18.5332V21.5866C29.3333 26.4399 26.44 29.3332 21.5867 29.3332H10.4133C7.01333 29.3332 4.56 27.9066 3.41333 25.3733L3.56 25.2666L10.12 20.8666C11.1867 20.1466 12.6933 20.2266 13.64 21.0532L14.0933 21.4266C15.1333 22.3199 16.8133 22.3199 17.8533 21.4266L23.4 16.6666C24.44 15.7732 26.12 15.7732 27.16 16.6666L29.3333 18.5332Z" fill="#6C63FF"/>
<path d="M27.96 10.6667H24.04C22.3467 10.6667 21.3334 9.65341 21.3334 7.96008V4.04008C21.3334 3.50675 21.44 3.05341 21.6267 2.66675C21.6134 2.66675 21.6 2.66675 21.5867 2.66675H10.4134C5.56002 2.66675 2.66669 5.56008 2.66669 10.4134V21.5868C2.66669 23.0401 2.92002 24.3067 3.41335 25.3734L3.56002 25.2668L10.12 20.8667C11.1867 20.1467 12.6934 20.2267 13.64 21.0534L14.0934 21.4267C15.1334 22.3201 16.8134 22.3201 17.8534 21.4267L23.4 16.6667C24.44 15.7734 26.12 15.7734 27.16 16.6667L29.3334 18.5334V10.4134C29.3334 10.4001 29.3334 10.3867 29.3334 10.3734C28.9467 10.5601 28.4934 10.6667 27.96 10.6667Z" fill="#A39DFF"/>
<path d="M12 13.8401C13.7526 13.8401 15.1733 12.4193 15.1733 10.6667C15.1733 8.91416 13.7526 7.49341 12 7.49341C10.2474 7.49341 8.82666 8.91416 8.82666 10.6667C8.82666 12.4193 10.2474 13.8401 12 13.8401Z" fill="#6C63FF"/>
<path d="M27.96 1.33325H24.04C22.3466 1.33325 21.3333 2.34659 21.3333 4.03992V7.95992C21.3333 9.65325 22.3466 10.6666 24.04 10.6666H27.96C29.6533 10.6666 30.6666 9.65325 30.6666 7.95992V4.03992C30.6666 2.34659 29.6533 1.33325 27.96 1.33325ZM29.2133 6.57325C29.08 6.70659 28.88 6.79992 28.6666 6.81325H26.7866L26.8 8.66659C26.7866 8.89325 26.7066 9.07992 26.5466 9.23992C26.4133 9.37325 26.2133 9.46659 26 9.46659C25.56 9.46659 25.2 9.10659 25.2 8.66659V6.79992L23.3333 6.81325C22.8933 6.81325 22.5333 6.43992 22.5333 5.99992C22.5333 5.55992 22.8933 5.19992 23.3333 5.19992L25.2 5.21325V3.34659C25.2 2.90659 25.56 2.53325 26 2.53325C26.44 2.53325 26.8 2.90659 26.8 3.34659L26.7866 5.19992H28.6666C29.1066 5.19992 29.4666 5.55992 29.4666 5.99992C29.4533 6.22659 29.36 6.41325 29.2133 6.57325Z" fill="#6C63FF"/>
</svg>
