<svg width="24" height="25" viewBox="0 0 24 25" fill="none" xmlns="http://www.w3.org/2000/svg">
<path d="M9 11.25C7.48 11.25 6.25 10.02 6.25 8.5C6.25 6.98 7.48 5.75 9 5.75C10.52 5.75 11.75 6.98 11.75 8.5C11.75 10.02 10.52 11.25 9 11.25ZM9 7.25C8.31 7.25 7.75 7.81 7.75 8.5C7.75 9.19 8.31 9.75 9 9.75C9.69 9.75 10.25 9.19 10.25 8.5C10.25 7.81 9.69 7.25 9 7.25Z" fill="current"/>
<path d="M15 22.75H9C6.3424 22.75 4.56492 22.1803 3.4423 21.0577C2.31968 19.9351 1.75 18.1576 1.75 15.5V9.5C1.75 6.8424 2.31968 5.06492 3.4423 3.9423C4.56492 2.81968 6.3424 2.25 9 2.25H13C13.1339 2.25 13.25 2.36614 13.25 2.5C13.25 2.63386 13.1339 2.75 13 2.75H9C6.65972 2.75 4.92432 3.16107 3.7927 4.2927C2.66107 5.42432 2.25 7.15972 2.25 9.5V15.5C2.25 17.8403 2.66107 19.5757 3.7927 20.7073C4.92432 21.8389 6.65972 22.25 9 22.25H15C17.3403 22.25 19.0757 21.8389 20.2073 20.7073C21.3389 19.5757 21.75 17.8403 21.75 15.5V10.5C21.75 10.3661 21.8661 10.25 22 10.25C22.1339 10.25 22.25 10.3661 22.25 10.5V15.5C22.25 18.1576 21.6803 19.9351 20.5577 21.0577C19.4351 22.1803 17.6576 22.75 15 22.75Z" fill="current" stroke="current"/>
<path d="M21.25 6.25H15.75C15.34 6.25 15 5.91 15 5.5C15 5.09 15.34 4.75 15.75 4.75H21.25C21.66 4.75 22 5.09 22 5.5C22 5.91 21.66 6.25 21.25 6.25Z" fill="current"/>
<path d="M18.5 9C18.09 9 17.75 8.66 17.75 8.25V2.75C17.75 2.34 18.09 2 18.5 2C18.91 2 19.25 2.34 19.25 2.75V8.25C19.25 8.66 18.91 9 18.5 9Z" fill="current"/>
<path d="M2.67005 20.2001C2.43005 20.2001 2.19005 20.0801 2.05005 19.8701C1.82005 19.5301 1.91005 19.0601 2.25005 18.8301L7.18005 15.5201C8.26005 14.8001 9.75005 14.8801 10.73 15.7101L11.06 16.0001C11.56 16.4301 12.41 16.4301 12.9 16.0001L17.06 12.4301C18.13 11.5201 19.7901 11.5201 20.8601 12.4301L22.49 13.8301C22.8 14.1001 22.84 14.5701 22.57 14.8901C22.3 15.2001 21.83 15.2401 21.51 14.9701L19.88 13.5701C19.38 13.1401 18.5301 13.1401 18.0401 13.5701L13.88 17.1401C12.82 18.0501 11.15 18.0501 10.08 17.1401L9.75005 16.8501C9.29005 16.4601 8.53005 16.4201 8.02005 16.7701L3.10005 20.0801C2.96005 20.1601 2.81005 20.2001 2.67005 20.2001Z" fill="current"/>
</svg>
