<svg width="56" height="56" viewBox="0 0 56 56" fill="none" xmlns="http://www.w3.org/2000/svg">
<g id="Mask group">
<mask id="mask0_620_48208" style="mask-type:alpha" maskUnits="userSpaceOnUse" x="0" y="0" width="56" height="56">
<rect id="Rectangle 38" width="56" height="56" fill="#D9D9D9"/>
</mask>
<g mask="url(#mask0_620_48208)">
<g id="Group 55">
<path id="Rectangle 37" d="M16.9674 8.26986C16.9674 7.99147 17.1931 7.76579 17.4715 7.76579H50.9921C51.2705 7.76579 51.4962 7.99147 51.4962 8.26986V47.5247C51.4962 47.8031 51.2705 48.0288 50.9921 48.0288H17.4715C17.1931 48.0288 16.9674 47.8031 16.9674 47.5247V8.26986Z" fill="#A39DFF" stroke="#6C63FF" stroke-width="1.00814" stroke-linejoin="round"/>
<path id="Rectangle 36" d="M16.9674 8.77376C16.9674 8.49537 17.1931 8.26969 17.4715 8.26969H49.4799C49.7583 8.26969 49.984 8.49537 49.984 8.77376V46.0123C49.984 46.2907 49.7583 46.5164 49.4799 46.5164H17.4715C17.1931 46.5164 16.9674 46.2907 16.9674 46.0123V8.77376Z" fill="#F3F2FF" stroke="#6C63FF" stroke-width="1.00814" stroke-linejoin="round"/>
<path id="Vector" d="M19.9917 16.5859H47.2114M19.9917 21.6266H47.2114M19.9917 26.9194H47.2114M19.9917 32.2121H47.2114M19.9917 37.5048H47.2114" stroke="#6C63FF" stroke-width="1.51221" stroke-linecap="round"/>
<g id="Vector 3" filter="url(#filter0_d_620_48208)">
<path d="M2.32366 36.6755L16.5141 8.32255C16.685 7.98121 17.034 7.76562 17.4157 7.76562H49.4108C50.1479 7.76562 50.6358 8.53089 50.3248 9.19918L37.1276 37.5521C36.9622 37.9076 36.6057 38.1348 36.2136 38.1348H3.22518C2.47558 38.1348 1.98816 37.3458 2.32366 36.6755Z" fill="#6C63FF"/>
<path d="M2.32366 36.6755L16.5141 8.32255C16.685 7.98121 17.034 7.76562 17.4157 7.76562H49.4108C50.1479 7.76562 50.6358 8.53089 50.3248 9.19918L37.1276 37.5521C36.9622 37.9076 36.6057 38.1348 36.2136 38.1348H3.22518C2.47558 38.1348 1.98816 37.3458 2.32366 36.6755Z" stroke="#6C63FF" stroke-width="0.252035"/>
</g>
<path id="Vector (Stroke)" d="M19.8657 6.50509C19.8657 6.0179 19.4708 5.62297 18.9836 5.62297C18.4964 5.62297 18.1015 6.0179 18.1015 6.50509V9.02543C18.1015 9.51261 18.4964 9.90755 18.9836 9.90755C19.4708 9.90755 19.8657 9.51261 19.8657 9.02543V6.50509ZM25.4105 6.50509C25.4105 6.0179 25.0155 5.62297 24.5284 5.62297C24.0412 5.62297 23.6462 6.0179 23.6462 6.50509V9.02543C23.6462 9.51261 24.0412 9.90755 24.5284 9.90755C25.0155 9.90755 25.4105 9.51261 25.4105 9.02543V6.50509ZM30.9552 6.50509C30.9552 6.0179 30.5603 5.62297 30.0731 5.62297C29.5859 5.62297 29.191 6.0179 29.191 6.50509V9.02543C29.191 9.51261 29.5859 9.90755 30.0731 9.90755C30.5603 9.90755 30.9552 9.51261 30.9552 9.02543V6.50509ZM36.5 6.50509C36.5 6.0179 36.1051 5.62297 35.6179 5.62297C35.1307 5.62297 34.7358 6.0179 34.7358 6.50509V9.02543C34.7358 9.51261 35.1307 9.90755 35.6179 9.90755C36.1051 9.90755 36.5 9.51261 36.5 9.02543V6.50509ZM42.0448 6.50509C42.0448 6.01791 41.6498 5.62297 41.1626 5.62297C40.6755 5.62297 40.2805 6.0179 40.2805 6.50509V9.02543C40.2805 9.51261 40.6755 9.90755 41.1626 9.90755C41.6498 9.90755 42.0448 9.51261 42.0448 9.02543V6.50509ZM47.5895 6.50509C47.5895 6.0179 47.1946 5.62297 46.7074 5.62297C46.2202 5.62297 45.8253 6.0179 45.8253 6.50509V9.02543C45.8253 9.51261 46.2202 9.90755 46.7074 9.90755C47.1946 9.90755 47.5895 9.51261 47.5895 9.02543V6.50509Z" fill="white" stroke="#6C63FF" stroke-width="0.504069" stroke-linecap="round"/>
<path id="Vector 4" d="M21.6079 15.3555H34.9509" stroke="#EBE9FA" stroke-width="1.48256" stroke-linecap="round"/>
<path id="Vector 5" d="M20.8667 18.3203H34.2097" stroke="#EBE9FA" stroke-width="1.48256" stroke-linecap="round"/>
</g>
</g>
</g>
<defs>
<filter id="filter0_d_620_48208" x="2.08936" y="7.63867" width="49.7797" height="32.6071" filterUnits="userSpaceOnUse" color-interpolation-filters="sRGB">
<feFlood flood-opacity="0" result="BackgroundImageFix"/>
<feColorMatrix in="SourceAlpha" type="matrix" values="0 0 0 0 0 0 0 0 0 0 0 0 0 0 0 0 0 0 127 0" result="hardAlpha"/>
<feOffset dx="1.32271" dy="1.98406"/>
<feComposite in2="hardAlpha" operator="out"/>
<feColorMatrix type="matrix" values="0 0 0 0 0.203854 0 0 0 0 0.0268229 0 0 0 0 0.429167 0 0 0 0.25 0"/>
<feBlend mode="color-burn" in2="BackgroundImageFix" result="effect1_dropShadow_620_48208"/>
<feBlend mode="normal" in="SourceGraphic" in2="effect1_dropShadow_620_48208" result="shape"/>
</filter>
</defs>
</svg>
