<svg width="24" height="24" viewBox="0 0 24 24" fill="none" xmlns="http://www.w3.org/2000/svg">
<path d="M13.8496 3.4043L13.85 3.40458L19.6099 7.43448C20.0387 7.73467 20.459 8.23882 20.7726 8.83965C21.0863 9.44047 21.26 10.074 21.26 10.6001V17.3801C21.26 19.5158 19.5258 21.2501 17.39 21.2501H6.60999C4.47631 21.2501 2.73999 19.508 2.73999 17.3701V10.4701C2.73999 9.9834 2.89682 9.38229 3.18285 8.80135C3.46868 8.22083 3.85159 7.72538 4.24126 7.42144L4.24143 7.42131L9.24936 3.51292C9.24969 3.51266 9.25003 3.5124 9.25036 3.51214C10.5006 2.54421 12.5492 2.49318 13.8496 3.4043Z" fill="white" stroke="current" stroke-width="1.5"/>
<path d="M12 18.75C11.59 18.75 11.25 18.41 11.25 18V15C11.25 14.59 11.59 14.25 12 14.25C12.41 14.25 12.75 14.59 12.75 15V18C12.75 18.41 12.41 18.75 12 18.75Z" fill="current"/>
</svg>
