<svg width="36" height="36" viewBox="0 0 36 36" fill="none" xmlns="http://www.w3.org/2000/svg">
<g filter="url(#filter0_d_277_50549)">
<path d="M4 10.907C4 8.74921 5.72911 7 7.86207 7H28.1379C30.2709 7 32 8.74921 32 10.907V24.093C32 26.2508 30.2709 28 28.1379 28H7.86207C5.72911 28 4 26.2508 4 24.093V10.907Z" fill="#6C63FF"/>
<path d="M4 10.907C4 8.74921 5.72911 7 7.86207 7H28.1379C30.2709 7 32 8.74921 32 10.907V24.093C32 26.2508 30.2709 28 28.1379 28H7.86207C5.72911 28 4 26.2508 4 24.093V10.907Z" fill="white"/>
<path d="M32 10.907V24.093C32 26.2508 30.2709 28 28.1379 28H7.86207C5.72911 28 4 26.2508 4 24.093V10.907M32 10.907C32 8.74921 30.2709 7 28.1379 7H7.86207C5.72911 7 4 8.74921 4 10.907M32 10.907L21.4639 18.7629C21.0962 19.0522 20.6436 19.2093 20.1778 19.2093H16.0512C15.593 19.2093 15.1474 19.0573 14.7827 18.7766L4 10.907" stroke="#6C63FF" stroke-width="1.73576"/>
</g>
<defs>
<filter id="filter0_d_277_50549" x="1.13208" y="6.13208" width="31.7358" height="25.7358" filterUnits="userSpaceOnUse" color-interpolation-filters="sRGB">
<feFlood flood-opacity="0" result="BackgroundImageFix"/>
<feColorMatrix in="SourceAlpha" type="matrix" values="0 0 0 0 0 0 0 0 0 0 0 0 0 0 0 0 0 0 127 0" result="hardAlpha"/>
<feOffset dx="-2" dy="3"/>
<feComposite in2="hardAlpha" operator="out"/>
<feColorMatrix type="matrix" values="0 0 0 0 0.203922 0 0 0 0 0.027451 0 0 0 0 0.427451 0 0 0 0.25 0"/>
<feBlend mode="color-burn" in2="BackgroundImageFix" result="effect1_dropShadow_277_50549"/>
<feBlend mode="normal" in="SourceGraphic" in2="effect1_dropShadow_277_50549" result="shape"/>
</filter>
</defs>
</svg>
