<svg width="24" height="24" viewBox="0 0 24 24" fill="none" xmlns="http://www.w3.org/2000/svg">
<path d="M12.4799 22.1H16.2799C17.8899 22.1 19.4299 20.93 19.7999 19.48L22.1899 12.2C22.5099 11.32 22.4099 10.41 21.9199 9.71999C21.4199 9.00999 20.5699 8.59999 19.5899 8.59999H15.5899C15.5099 8.59999 15.4399 8.56999 15.3899 8.51999C15.3199 8.43999 15.3199 8.33999 15.3299 8.26999L15.8199 5.11999C16.0999 3.83999 15.2999 2.45999 14.0499 2.04999C12.9699 1.63999 11.5899 2.08999 10.9599 3.02999L6.85986 9.12999L7.01986 18.94L10.0499 21.28C10.6999 21.93 11.9199 22.1 12.4799 22.1Z" fill="current"/>
<path d="M5.37988 21H4.37988C2.52988 21 1.62988 20.13 1.62988 18.35V8.55002C1.62988 6.77002 2.52988 5.90002 4.37988 5.90002H5.37988C7.22988 5.90002 8.12988 6.77002 8.12988 8.55002V18.35C8.12988 20.13 7.22988 21 5.37988 21ZM4.37988 7.40002C3.28988 7.40002 3.12988 7.66002 3.12988 8.55002V18.35C3.12988 19.24 3.28988 19.5 4.37988 19.5H5.37988C6.46988 19.5 6.62988 19.24 6.62988 18.35V8.55002C6.62988 7.66002 6.46988 7.40002 5.37988 7.40002H4.37988Z" fill="current"/>
</svg>
