<svg width="25" height="25" viewBox="0 0 25 25" fill="none" xmlns="http://www.w3.org/2000/svg">
<path d="M17.0002 18.75H15.4902C15.0802 18.75 14.7402 18.41 14.7402 18C14.7402 17.59 15.0802 17.25 15.4902 17.25H17.0002C19.6202 17.25 21.7502 15.12 21.7502 12.5C21.7502 9.88 19.6202 7.75 17.0002 7.75H15.5002C15.0902 7.75 14.7502 7.41 14.7502 7C14.7502 6.59 15.0802 6.25 15.5002 6.25H17.0002C20.4502 6.25 23.2502 9.05 23.2502 12.5C23.2502 15.95 20.4502 18.75 17.0002 18.75Z" fill="current"/>
<path d="M9.5 18.75H8C4.55 18.75 1.75 15.95 1.75 12.5C1.75 9.05 4.55 6.25 8 6.25H9.5C9.91 6.25 10.25 6.59 10.25 7C10.25 7.41 9.91 7.75 9.5 7.75H8C5.38 7.75 3.25 9.88 3.25 12.5C3.25 15.12 5.38 17.25 8 17.25H9.5C9.91 17.25 10.25 17.59 10.25 18C10.25 18.41 9.91 18.75 9.5 18.75Z" fill="current"/>
<path d="M16.5 13.25H8.5C8.09 13.25 7.75 12.91 7.75 12.5C7.75 12.09 8.09 11.75 8.5 11.75H16.5C16.91 11.75 17.25 12.09 17.25 12.5C17.25 12.91 16.91 13.25 16.5 13.25Z" fill="current"/>
</svg>
