<svg width="36" height="37" viewBox="0 0 36 37" fill="none" xmlns="http://www.w3.org/2000/svg">
<g filter="url(#filter0_d_278_51472)">
<path d="M13.3501 11.34C13.8151 5.93999 16.5901 3.73499 22.6651 3.73499H22.8601C29.5651 3.73499 32.2501 6.41999 32.2501 13.125V22.905C32.2501 29.61 29.5651 32.295 22.8601 32.295H22.6651C16.6351 32.295 13.8601 30.12 13.3651 24.81" fill="white"/>
<path d="M13.3501 11.34C13.8151 5.93999 16.5901 3.73499 22.6651 3.73499H22.8601C29.5651 3.73499 32.2501 6.41999 32.2501 13.125V22.905C32.2501 29.61 29.5651 32.295 22.8601 32.295H22.6651C16.6351 32.295 13.8601 30.12 13.3651 24.81" stroke="#6C63FF" stroke-width="1.73576" stroke-linecap="round"/>
</g>
<path d="M22.5 18H3.75M3.75 18L8.775 12.975M3.75 18L8.775 23.025" stroke="#6C63FF" stroke-width="1.73576" stroke-linecap="round"/>
<defs>
<filter id="filter0_d_278_51472" x="10.4822" y="2.86707" width="22.6357" height="33.2958" filterUnits="userSpaceOnUse" color-interpolation-filters="sRGB">
<feFlood flood-opacity="0" result="BackgroundImageFix"/>
<feColorMatrix in="SourceAlpha" type="matrix" values="0 0 0 0 0 0 0 0 0 0 0 0 0 0 0 0 0 0 127 0" result="hardAlpha"/>
<feOffset dx="-2" dy="3"/>
<feComposite in2="hardAlpha" operator="out"/>
<feColorMatrix type="matrix" values="0 0 0 0 0.203922 0 0 0 0 0.027451 0 0 0 0 0.427451 0 0 0 0.25 0"/>
<feBlend mode="color-burn" in2="BackgroundImageFix" result="effect1_dropShadow_278_51472"/>
<feBlend mode="normal" in="SourceGraphic" in2="effect1_dropShadow_278_51472" result="shape"/>
</filter>
</defs>
</svg>
