<svg width="24" height="24" viewBox="0 0 24 24" fill="none" xmlns="http://www.w3.org/2000/svg">
<path d="M16.9792 13.1999C16.7892 13.1999 16.5892 13.1199 16.4492 12.9799L11.0492 7.56994C10.7992 7.31994 10.7592 6.93994 10.9492 6.63994L12.6392 3.96994C13.1092 3.22994 13.8192 2.76994 14.6492 2.67994C15.5792 2.58994 16.5392 2.94994 17.2892 3.69994L20.3192 6.72994C21.0392 7.44994 21.3992 8.41994 21.2892 9.37994C21.1992 10.2199 20.7492 10.9499 20.0492 11.3899L17.3792 13.0799C17.2592 13.1599 17.1192 13.1999 16.9792 13.1999ZM12.5292 6.93994L17.0892 11.4999L19.2592 10.1299C19.5692 9.92994 19.7692 9.60994 19.8092 9.21994C19.8692 8.71994 19.6592 8.18994 19.2692 7.79994L16.2392 4.76994C15.8092 4.33994 15.2892 4.10994 14.8192 4.17994C14.4392 4.21994 14.1292 4.42994 13.9092 4.77994L12.5292 6.93994Z" fill="current"/>
<path d="M5.89038 21.34C5.00038 21.34 4.20038 21.02 3.60038 20.43C2.90038 19.73 2.59038 18.76 2.72038 17.68L3.70038 9.35003C4.00038 6.83003 5.11038 5.91003 7.70038 6.06003L11.6204 6.29003C12.0304 6.32003 12.3504 6.67003 12.3204 7.08003C12.2904 7.49003 11.9404 7.81003 11.5304 7.78003L7.61038 7.56003C5.83038 7.45003 5.39038 7.80003 5.19038 9.53003L4.21038 17.85C4.14038 18.46 4.30038 19 4.66038 19.36C5.03038 19.72 5.57038 19.89 6.18038 19.81L14.5004 18.83C16.2504 18.62 16.6404 18.16 16.4704 16.44L16.2304 12.49C16.2104 12.08 16.5204 11.72 16.9304 11.7C17.3404 11.67 17.7004 11.99 17.7204 12.4L17.9504 16.32C18.1904 18.81 17.2104 20.01 14.6604 20.32L6.34038 21.3C6.20038 21.33 6.04038 21.34 5.89038 21.34Z" fill="current"/>
<path d="M4.61078 20.1699C4.42078 20.1699 4.23078 20.0999 4.08078 19.9499C3.79078 19.6599 3.79078 19.1799 4.08078 18.8899L7.12078 15.8499C7.41078 15.5599 7.89078 15.5599 8.18078 15.8499C8.47078 16.1399 8.47078 16.6199 8.18078 16.9099L5.14078 19.9499C4.99078 20.0999 4.80078 20.1699 4.61078 20.1699Z" fill="current"/>
</svg>
