<svg width="25" height="25" viewBox="0 0 25 25" fill="none" xmlns="http://www.w3.org/2000/svg">
<path d="M15.5 23.25H9.5C4.07 23.25 1.75 20.93 1.75 15.5V9.5C1.75 4.07 4.07 1.75 9.5 1.75H15.5C20.93 1.75 23.25 4.07 23.25 9.5V15.5C23.25 20.93 20.93 23.25 15.5 23.25ZM9.5 3.25C4.89 3.25 3.25 4.89 3.25 9.5V15.5C3.25 20.11 4.89 21.75 9.5 21.75H15.5C20.11 21.75 21.75 20.11 21.75 15.5V9.5C21.75 4.89 20.11 3.25 15.5 3.25H9.5Z" fill="current"/>
<path d="M12.4999 15.76C12.3099 15.76 12.1199 15.6899 11.9699 15.5399L8.96994 12.5399C8.67994 12.2499 8.67994 11.77 8.96994 11.48C9.25994 11.19 9.73994 11.19 10.0299 11.48L12.4999 13.95L14.9699 11.48C15.2599 11.19 15.7399 11.19 16.0299 11.48C16.3199 11.77 16.3199 12.2499 16.0299 12.5399L13.0299 15.5399C12.8799 15.6899 12.6899 15.76 12.4999 15.76Z" fill="current"/>
<path d="M12.5 15.76C12.09 15.76 11.75 15.42 11.75 15.01V7.01001C11.75 6.60001 12.09 6.26001 12.5 6.26001C12.91 6.26001 13.25 6.60001 13.25 7.01001V15.01C13.25 15.43 12.91 15.76 12.5 15.76Z" fill="current"/>
<path d="M12.4999 18.73C10.3899 18.73 8.26995 18.39 6.25995 17.72C5.86995 17.59 5.65995 17.16 5.78995 16.77C5.91995 16.38 6.33994 16.16 6.73994 16.3C10.4599 17.54 14.5499 17.54 18.2699 16.3C18.6599 16.17 19.0899 16.38 19.2199 16.77C19.3499 17.16 19.1399 17.59 18.7499 17.72C16.7299 18.4 14.6099 18.73 12.4999 18.73Z" fill="current"/>
</svg>
