<svg width="28" height="28" viewBox="0 0 28 28" fill="none" xmlns="http://www.w3.org/2000/svg">
<path d="M17.5002 26.2471H10.5002C7.36649 26.2471 5.20037 25.5765 3.81205 24.1882C2.42373 22.7998 1.75314 20.6337 1.75314 17.5V10.5C1.75314 7.36636 2.42373 5.20025 3.81205 3.81193C5.20037 2.4236 7.36649 1.75302 10.5002 1.75302H17.5002C20.6338 1.75302 22.8 2.4236 24.1883 3.81193C25.5766 5.20025 26.2472 7.36636 26.2472 10.5V17.5C26.2472 20.6337 25.5766 22.7998 24.1883 24.1882C22.8 25.5765 20.6338 26.2471 17.5002 26.2471Z" fill="#F3F2FF" stroke="#6C63FF" stroke-width="0.589286"/>
<path d="M16.7755 23.3296C16.5934 23.3296 16.4112 23.3021 16.2291 23.2563C15.6913 23.1006 15.2402 22.7434 14.954 22.2397L14.8499 22.0565C14.3381 21.1224 13.6355 21.1224 13.1238 22.0565L13.0283 22.2305C12.7421 22.7434 12.291 23.1098 11.7532 23.2563C11.2068 23.412 10.643 23.3296 10.1659 23.0273L8.67394 22.1206C8.14482 21.8001 7.76316 21.2781 7.59835 20.6461C7.44222 20.0142 7.52028 19.3639 7.82388 18.8053C8.07543 18.3382 8.14482 17.9169 7.99736 17.6513C7.8499 17.3857 7.47691 17.23 6.96514 17.23C5.69872 17.23 4.6665 16.1402 4.6665 14.803V13.1911C4.6665 11.854 5.69872 10.7641 6.96514 10.7641C7.47691 10.7641 7.8499 10.6084 7.99736 10.3428C8.14482 10.0773 8.0841 9.65596 7.82388 9.18888C7.52028 8.63022 7.44222 7.97081 7.59835 7.34803C7.75448 6.7161 8.13614 6.19406 8.67394 5.87352L10.1746 4.96683C11.1547 4.35321 12.4472 4.71039 13.037 5.76361L13.1411 5.94678C13.6529 6.88095 14.3555 6.88095 14.8672 5.94678L14.9627 5.77277C15.5525 4.71039 16.8449 4.35321 17.8338 4.97599L19.3257 5.88268C19.8549 6.20322 20.2365 6.72525 20.4013 7.35719C20.5575 7.98912 20.4794 8.63937 20.1758 9.19804C19.9242 9.66512 19.8549 10.0864 20.0023 10.352C20.1498 10.6176 20.5228 10.7733 21.0345 10.7733C22.301 10.7733 23.3332 11.8632 23.3332 13.2003V14.8122C23.3332 16.1493 22.301 17.2392 21.0345 17.2392C20.5228 17.2392 20.1498 17.3949 20.0023 17.6605C19.8549 17.9261 19.9156 18.3474 20.1758 18.8144C20.4794 19.3731 20.5661 20.0325 20.4013 20.6553C20.2452 21.2872 19.8635 21.8093 19.3257 22.1298L17.8251 23.0365C17.4955 23.2288 17.1399 23.3296 16.7755 23.3296Z" fill="#6C63FF"/>
<path d="M13.9998 16.3333C12.7118 16.3333 11.6665 15.288 11.6665 14C11.6665 12.712 12.7118 11.6666 13.9998 11.6666C15.2878 11.6666 16.3332 12.712 16.3332 14C16.3332 15.288 15.2878 16.3333 13.9998 16.3333Z" fill="#F3F2FF"/>
</svg>
