<svg width="56" height="56" viewBox="0 0 56 56" fill="none" xmlns="http://www.w3.org/2000/svg">
<g id="share-envelope">
<g id="Vector">
<path d="M42.4352 17.6094H47.967C49.6421 17.6094 51 18.9673 51 20.6423V48.025C51 49.7 49.6421 51.058 47.967 51.058H8.03297C6.35791 51.058 5 49.7 5 48.025V20.6423C5 18.9673 6.35791 17.6094 8.03297 17.6094H13.5648" fill="#FCFCFF"/>
<path d="M42.4352 17.6094H47.967C49.6421 17.6094 51 18.9673 51 20.6423V48.025C51 49.7 49.6421 51.058 47.967 51.058H8.03297C6.35791 51.058 5 49.7 5 48.025V20.6423C5 18.9673 6.35791 17.6094 8.03297 17.6094H13.5648H42.4352Z" stroke="#6C63FF" stroke-width="1.5" stroke-miterlimit="10"/>
</g>
<path id="Vector_2" d="M6.54639 19.1562L25.8555 38.4654C27.04 39.6498 28.9604 39.6498 30.1448 38.4654L49.454 19.1562" stroke="#6C63FF" stroke-width="1.5" stroke-miterlimit="10"/>
<path id="Vector_3" d="M21.7354 34.3223L6.54639 49.5113" stroke="#6C63FF" stroke-width="1.5" stroke-miterlimit="10"/>
<path id="Vector_4" d="M49.4537 49.5113L34.2646 34.3223" stroke="#6C63FF" stroke-width="2.02198" stroke-miterlimit="10"/>
<g id="Vector_5" filter="url(#filter0_d_620_48180)">
<path d="M23.9561 20.9805L45.1868 31.0904" stroke="#6C63FF" stroke-width="2" stroke-miterlimit="10"/>
</g>
<g id="Vector_6" filter="url(#filter1_d_620_48180)">
<path d="M45.1868 9.85938L23.9561 20.9803" stroke="#6C63FF" stroke-width="2" stroke-miterlimit="10"/>
</g>
<g id="Vector_7" filter="url(#filter2_d_620_48180)">
<path d="M23.4506 24.0144C25.4048 24.0144 26.989 22.4302 26.989 20.476C26.989 18.5217 25.4048 16.9375 23.4506 16.9375C21.4963 16.9375 19.9121 18.5217 19.9121 20.476C19.9121 22.4302 21.4963 24.0144 23.4506 24.0144Z" fill="#F3F2FF"/>
<path d="M23.4506 24.0144C25.4048 24.0144 26.989 22.4302 26.989 20.476C26.989 18.5217 25.4048 16.9375 23.4506 16.9375C21.4963 16.9375 19.9121 18.5217 19.9121 20.476C19.9121 22.4302 21.4963 24.0144 23.4506 24.0144Z" stroke="#6C63FF" stroke-width="2" stroke-miterlimit="10"/>
</g>
<g id="Vector_8" filter="url(#filter3_d_620_48180)">
<path d="M44.6815 13.9031C46.6358 13.9031 48.22 12.3189 48.22 10.3646C48.22 8.4104 46.6358 6.82617 44.6815 6.82617C42.7273 6.82617 41.1431 8.4104 41.1431 10.3646C41.1431 12.3189 42.7273 13.9031 44.6815 13.9031Z" fill="#F3F2FF"/>
<path d="M44.6815 13.9031C46.6358 13.9031 48.22 12.3189 48.22 10.3646C48.22 8.4104 46.6358 6.82617 44.6815 6.82617C42.7273 6.82617 41.1431 8.4104 41.1431 10.3646C41.1431 12.3189 42.7273 13.9031 44.6815 13.9031Z" stroke="#6C63FF" stroke-width="2" stroke-miterlimit="10"/>
</g>
<g id="Vector_9" filter="url(#filter4_d_620_48180)">
<path d="M44.6815 35.1355C46.6358 35.1355 48.22 33.5513 48.22 31.5971C48.22 29.6428 46.6358 28.0586 44.6815 28.0586C42.7273 28.0586 41.1431 29.6428 41.1431 31.5971C41.1431 33.5513 42.7273 35.1355 44.6815 35.1355Z" fill="#F3F2FF"/>
<path d="M44.6815 35.1355C46.6358 35.1355 48.22 33.5513 48.22 31.5971C48.22 29.6428 46.6358 28.0586 44.6815 28.0586C42.7273 28.0586 41.1431 29.6428 41.1431 31.5971C41.1431 33.5513 42.7273 35.1355 44.6815 35.1355Z" stroke="#6C63FF" stroke-width="2" stroke-miterlimit="10"/>
</g>
</g>
<defs>
<filter id="filter0_d_620_48180" x="22.5149" y="20.0781" width="23.1018" height="13.938" filterUnits="userSpaceOnUse" color-interpolation-filters="sRGB">
<feFlood flood-opacity="0" result="BackgroundImageFix"/>
<feColorMatrix in="SourceAlpha" type="matrix" values="0 0 0 0 0 0 0 0 0 0 0 0 0 0 0 0 0 0 127 0" result="hardAlpha"/>
<feOffset dx="-1.01099" dy="2.02198"/>
<feComposite in2="hardAlpha" operator="out"/>
<feColorMatrix type="matrix" values="0 0 0 0 0.203922 0 0 0 0 0.027451 0 0 0 0 0.427451 0 0 0 0.25 0"/>
<feBlend mode="color-burn" in2="BackgroundImageFix" result="effect1_dropShadow_620_48180"/>
<feBlend mode="normal" in="SourceGraphic" in2="effect1_dropShadow_620_48180" result="shape"/>
</filter>
<filter id="filter1_d_620_48180" x="22.4812" y="8.97266" width="23.1697" height="14.9146" filterUnits="userSpaceOnUse" color-interpolation-filters="sRGB">
<feFlood flood-opacity="0" result="BackgroundImageFix"/>
<feColorMatrix in="SourceAlpha" type="matrix" values="0 0 0 0 0 0 0 0 0 0 0 0 0 0 0 0 0 0 127 0" result="hardAlpha"/>
<feOffset dx="-1.01099" dy="2.02198"/>
<feComposite in2="hardAlpha" operator="out"/>
<feColorMatrix type="matrix" values="0 0 0 0 0.203922 0 0 0 0 0.027451 0 0 0 0 0.427451 0 0 0 0.25 0"/>
<feBlend mode="color-burn" in2="BackgroundImageFix" result="effect1_dropShadow_620_48180"/>
<feBlend mode="normal" in="SourceGraphic" in2="effect1_dropShadow_620_48180" result="shape"/>
</filter>
<filter id="filter2_d_620_48180" x="17.9011" y="15.9375" width="10.0881" height="11.0982" filterUnits="userSpaceOnUse" color-interpolation-filters="sRGB">
<feFlood flood-opacity="0" result="BackgroundImageFix"/>
<feColorMatrix in="SourceAlpha" type="matrix" values="0 0 0 0 0 0 0 0 0 0 0 0 0 0 0 0 0 0 127 0" result="hardAlpha"/>
<feOffset dx="-1.01099" dy="2.02198"/>
<feComposite in2="hardAlpha" operator="out"/>
<feColorMatrix type="matrix" values="0 0 0 0 0.203922 0 0 0 0 0.027451 0 0 0 0 0.427451 0 0 0 0.25 0"/>
<feBlend mode="color-burn" in2="BackgroundImageFix" result="effect1_dropShadow_620_48180"/>
<feBlend mode="normal" in="SourceGraphic" in2="effect1_dropShadow_620_48180" result="shape"/>
</filter>
<filter id="filter3_d_620_48180" x="39.1321" y="5.82617" width="10.0881" height="10.0872" filterUnits="userSpaceOnUse" color-interpolation-filters="sRGB">
<feFlood flood-opacity="0" result="BackgroundImageFix"/>
<feColorMatrix in="SourceAlpha" type="matrix" values="0 0 0 0 0 0 0 0 0 0 0 0 0 0 0 0 0 0 127 0" result="hardAlpha"/>
<feOffset dx="-1.01099" dy="1.01099"/>
<feComposite in2="hardAlpha" operator="out"/>
<feColorMatrix type="matrix" values="0 0 0 0 0.203922 0 0 0 0 0.027451 0 0 0 0 0.427451 0 0 0 0.25 0"/>
<feBlend mode="color-burn" in2="BackgroundImageFix" result="effect1_dropShadow_620_48180"/>
<feBlend mode="normal" in="SourceGraphic" in2="effect1_dropShadow_620_48180" result="shape"/>
</filter>
<filter id="filter4_d_620_48180" x="39.1321" y="27.0586" width="10.0881" height="10.0872" filterUnits="userSpaceOnUse" color-interpolation-filters="sRGB">
<feFlood flood-opacity="0" result="BackgroundImageFix"/>
<feColorMatrix in="SourceAlpha" type="matrix" values="0 0 0 0 0 0 0 0 0 0 0 0 0 0 0 0 0 0 127 0" result="hardAlpha"/>
<feOffset dx="-1.01099" dy="1.01099"/>
<feComposite in2="hardAlpha" operator="out"/>
<feColorMatrix type="matrix" values="0 0 0 0 0.203922 0 0 0 0 0.027451 0 0 0 0 0.427451 0 0 0 0.25 0"/>
<feBlend mode="color-burn" in2="BackgroundImageFix" result="effect1_dropShadow_620_48180"/>
<feBlend mode="normal" in="SourceGraphic" in2="effect1_dropShadow_620_48180" result="shape"/>
</filter>
</defs>
</svg>
