<svg width="32" height="32" viewBox="0 0 32 32" fill="none" xmlns="http://www.w3.org/2000/svg">
<path d="M1.66671 20.0001L1.66671 12.0001C1.66671 4.76008 4.76004 1.66675 12 1.66675L20 1.66675C27.24 1.66675 30.3334 4.76008 30.3334 12.0001L30.3334 20.0001C30.3334 27.2401 27.24 30.3334 20 30.3334L12 30.3334C4.76004 30.3334 1.6667 27.2401 1.66671 20.0001ZM28.3334 12.0001C28.3334 5.85341 26.1467 3.66675 20 3.66675L12 3.66675C5.85337 3.66675 3.66671 5.85341 3.66671 12.0001L3.66671 20.0001C3.66671 26.1467 5.85337 28.3334 12 28.3334L20 28.3334C26.1467 28.3334 28.3334 26.1467 28.3334 20.0001L28.3334 12.0001Z" fill="current"/>
<path d="M12.12 16C12.12 15.7466 12.2134 15.4933 12.4134 15.2933L17.12 10.5866C17.5067 10.2 18.1467 10.2 18.5334 10.5866C18.92 10.9733 18.92 11.6133 18.5334 12L14.5334 16L18.5334 20C18.92 20.3866 18.92 21.0266 18.5334 21.4133C18.1467 21.8 17.5067 21.8 17.12 21.4133L12.4134 16.7066C12.2134 16.5066 12.12 16.2533 12.12 16Z" fill="current"/>
</svg>
